<svg version="1.2" baseProfile="tiny-ps" xmlns="http://www.w3.org/2000/svg" viewBox="0 0 541 460" width="541" height="460">
	<title>&lt;Group&gt;</title>
	<style>
		tspan { white-space:pre }
		.shp0 { fill: #4b53e4 } 
		.shp1 { fill: #221660 } 
		.shp2 { fill: #f6a915 } 
		.shp3 { fill: #f68e15 } 
		.shp4 { fill: #fe9da7 } 
		.shp5 { fill: #ff6688 } 
		.shp6 { fill: #fcde98 } 
		.shp7 { fill: #000000 } 
		.shp8 { fill: #3a4b73 } 
		.shp9 { fill: #f65015 } 
	</style>
	<g id="&lt;Group&gt;">
		<path id="&lt;Path&gt;" class="shp0" d="M333.4 212.71L394.65 316.32C420.82 266.77 435.82 239.45 439.67 234.35C443.51 229.26 463.65 237.66 500.09 259.56C478.44 303.85 462.16 338.72 451.25 364.19C442.73 384.06 414.84 391.92 367.58 387.77L315.11 304.58L333.4 212.71Z" />
		<path id="&lt;Path&gt;" class="shp1" d="M500.09 259.56C463.65 237.66 443.51 229.26 439.67 234.35C446.29 219.84 450.88 211.96 453.45 210.73C464.07 205.6 542.92 252.13 540.55 253.94C537.31 256.42 524.82 255.32 503.11 250.62L500.09 259.56Z" />
		<path id="&lt;Path&gt;" class="shp0" d="M220.95 290.48C230.76 311.76 297.9 434.91 326.46 453.69C355.01 472.47 431.84 437.88 479.59 420.72L457.98 353.96L368.31 377.09L324.65 309.45C343.75 263.65 346.66 231.4 333.4 212.71L220.95 290.48Z" />
		<path id="&lt;Path&gt;" class="shp1" d="M234.02 322.1L344.92 260.62L348.97 237.44L234.02 322.1Z" />
		<path id="&lt;Path&gt;" class="shp2" d="M245.72 79.89C250.66 77.46 276.19 81.27 322.34 91.31L313.93 147.3L277.86 138.87L245.72 79.89Z" />
		<path id="&lt;Path&gt;" class="shp3" d="M313.93 147.3L283.82 140.01L259.85 97.01C266.44 99.13 272.77 102.75 278.85 107.86C279.33 108.27 297.16 120.33 297.64 120.77C302.84 125.48 309.38 126.46 317.25 123.71L313.93 147.3Z" />
		<path id="&lt;Path&gt;" class="shp4" d="M15.35 114.23C6.48 107.12 0.02 93.3 0.4 84.96C0.78 76.61 5.53 67.52 10.17 65.97C14.81 64.41 14.98 70.34 13.63 74.63C12.74 77.49 12.24 82.06 12.15 88.34L15.35 114.23Z" />
		<path id="&lt;Path&gt;" class="shp5" d="M13.63 74.63C12.74 77.49 12.24 82.06 12.15 88.34L15.35 114.23C10.63 106.61 7.53 98.56 6.04 90.06C4.55 81.56 7.08 76.42 13.63 74.63Z" />
		<path id="&lt;Path&gt;" class="shp4" d="M136.03 31.6C128.53 45.8 140.39 87.5 141.35 90.09C143.5 95.88 147.21 111.95 176.53 99.83L182.91 113.24C206.34 103.13 218.97 96.23 220.79 92.55C216.5 84.47 211.94 74.66 207.13 63.09C200.4 46.9 193.32 25.53 181.22 22.01C156.16 14.72 142.85 18.72 136.03 31.6Z" />
		<path id="&lt;Path&gt;" class="shp1" d="M122.98 48.12C127.24 58.99 138.56 59.76 156.95 50.43C159.52 55.71 163.46 58.55 168.75 58.93L169.93 68.68L176.59 65.99C178.09 84.24 180.44 94.16 183.66 95.75C188.48 98.13 212.49 87.32 215.66 82.27C216.84 80.37 213.59 60.38 213.03 50.71C212.1 34.59 212.59 18.83 197.28 26.6C193.91 18.38 190.47 13.16 186.97 10.95C183.47 8.74 179.83 9.62 176.05 13.59C172.95 3.97 166.69 -0.28 157.25 0.83C147.81 1.94 142.02 5.57 139.86 11.72C125.9 0.1 113.52 1.64 102.7 16.33C90.35 33.09 106.59 51.61 115.45 49.87L122.98 48.12Z" />
		<path id="&lt;Path&gt;" class="shp4" d="M36.13 97.28C30.21 98.28 24.66 92.01 23.16 89.3C21.66 86.58 23.84 83.5 31.6 73.79C37.35 66.6 31.51 63.02 25.05 66.17C15.92 70.53 10.36 76.11 8.38 82.91C5.74 91.97 8.64 103.68 17.09 118.03C24.4 144.15 36.52 168.37 53.46 190.67C73.58 217.17 91.86 213.26 102.38 213.13C109.39 213.05 123.76 208.21 145.47 198.62L114.58 151.07L92.39 160.23C80.25 148.93 67.61 130.28 54.49 104.25L36.13 97.28Z" />
		<path id="&lt;Path&gt;" class="shp5" d="M31.6 73.79C23.84 83.5 21.66 86.58 23.16 89.3C24.66 92.01 30.21 98.28 36.13 97.28L26.38 100.58L23.52 106.89C19.44 99.26 17.94 92.98 19.02 88.07C20.1 83.15 24.29 78.39 31.6 73.79Z" />
		<path id="&lt;Path&gt;" class="shp5" d="M114.58 151.07L145.47 198.62C137.58 202.1 129.73 205.24 121.92 208.03C119.37 208.94 128.27 204.54 127.18 196.22C125.71 184.98 121.51 169.93 114.58 151.07Z" />
		<path id="&lt;Path&gt;" class="shp4" d="M322.23 92.14C321.73 92.32 348.04 99.77 355.13 96.32C361.74 93.1 369.91 79.77 379.65 56.31C376.2 43.31 375.74 36.24 378.28 35.09C380.83 33.95 383.17 36.78 385.31 43.58C389.56 22.14 392.94 11.58 395.46 11.91C399.24 12.4 400.55 18.96 400.49 28.3C401.19 30.49 401.83 30.42 402.43 28.07C403.32 24.55 405.39 12.71 409.19 11.43C413 10.16 415.23 23.2 412.99 32.01C418.01 21.98 421.23 17.13 422.62 17.44C424.72 17.91 427.22 27.35 422.43 37.89C426.61 32.4 429.39 30.1 430.78 31.01C432.87 32.36 431.25 45.72 419.97 62.87C416.44 101.25 401.65 128.06 375.61 143.33C362.02 151.29 345.26 152.18 330.45 149.45C324.01 148.27 318.51 146.96 313.95 145.53L322.23 92.14Z" />
		<path id="&lt;Path&gt;" class="shp4" d="M174.3 70.7C177.68 60.56 180.36 59.1 184.9 64.98C189.43 70.85 183.82 82.46 177.36 81.89C173.06 81.51 172.04 77.78 174.3 70.7Z" />
		<path id="&lt;Path&gt;" class="shp1" d="M457.98 353.96C472.64 348.23 481.54 346.13 484.69 347.65C489.42 349.94 525.42 442.74 523.12 455.48C521.58 463.97 509.92 451.25 488.13 417.31L479.59 420.72L457.98 353.96Z" />
		<path id="&lt;Path&gt;" class="shp2" d="M112.8 145.55C113.55 153.91 141.48 199.95 145.47 198.62C147.25 198.02 154.52 194.41 167.28 187.78C166.96 187.89 200.29 271.02 230.56 323.9C294.87 282.5 338.37 250.51 361.09 227.95C291.77 133.67 253.31 84.31 245.72 79.89L154.95 125.5L112.8 145.55Z" />
		<g id="&lt;Group&gt;">
			<g id="&lt;Group&gt;">
				<path id="&lt;Path&gt;" class="shp1" d="M335.48 279.03C332.9 289.59 329.18 299.57 324.19 309.15C324 309.52 323.93 310.02 324.17 310.39C338.54 332.82 352.92 355.26 367.29 377.7C367.58 378.16 368.07 378.42 368.6 378.28C396.92 370.8 425.24 363.31 453.56 355.83C455.01 355.45 454.43 353.08 452.98 353.46C428 360.06 403.03 366.66 378.05 373.26C375.21 374.01 371.09 376.03 368.13 375.88C369.94 375.97 369.02 376.63 368.14 374.65C367.24 372.62 365.61 370.7 364.42 368.84C355.77 355.33 347.11 341.83 338.46 328.32C334.93 322.8 330.33 317.22 327.53 311.25C325.93 307.87 327.17 308.72 329.2 304.36C332.87 296.46 335.64 288.21 337.72 279.71C338.09 278.18 335.85 277.5 335.48 279.03Z" />
			</g>
		</g>
		<g id="&lt;Group&gt;">
			<path id="&lt;Path&gt;" class="shp1" d="M348.5 346.18L325.18 309.78C327.99 304.53 330.42 299.06 332.45 293.43C333.55 290.37 338.9 307.95 348.5 346.18Z" />
		</g>
		<path id="&lt;Path&gt;" class="shp5" d="M330.45 149.45C324.01 148.27 318.51 146.96 313.95 145.53L322.23 92.14C322.47 116.44 323.75 131.38 326.07 136.95C327.74 140.98 329.2 145.15 330.45 149.45Z" />
		<path id="&lt;Path&gt;" class="shp2" d="M22.05 110.81L23.6 105.15L25.27 98.6L31.6 73.79C32.49 70.91 34.49 68.19 37.61 65.64C38.28 65.1 39.02 64.56 39.83 64.05C40.23 64.66 40.64 65.51 41.08 66.58C41.99 68.82 43.02 72.37 42.78 76.66C42.55 80.82 40.36 92.39 38.49 101.71C37.99 104.21 37.51 106.54 37.1 108.53C36.58 111.05 36.14 113.16 35.78 114.85C32.9 116.32 30.23 116.82 27.79 116.36C25.34 115.89 23.43 114.05 22.05 110.81Z" />
		<path id="&lt;Path&gt;" class="shp6" d="M42.78 76.66C43.02 72.37 41.99 68.82 41.08 66.58C40.64 65.51 40.23 64.66 39.83 64.05C39.02 64.56 38.28 65.1 37.61 65.64C34.49 68.19 32.49 70.91 31.6 73.79L35.06 71.43L36.14 73.47L38.8 71.8L40.47 75.55L42.02 73.76L42.78 76.66Z" />
		<path id="&lt;Path&gt;" class="shp7" d="M41.08 66.58C40.64 65.51 40.23 64.66 39.83 64.05C39.02 64.56 38.28 65.1 37.61 65.64L41.08 66.58Z" />
		<path id="&lt;Path&gt;" class="shp8" d="M37.1 108.53C37.51 106.54 37.99 104.21 38.49 101.71C37.61 100.82 35.81 99.25 33.08 98.42C29.47 97.32 26.44 98.19 25.27 98.6C24.71 100.78 24.16 102.97 23.6 105.15L37.1 108.53Z" />
		<path id="&lt;Path&gt;" class="shp9" d="M37.1 108.53C36.58 111.05 36.14 113.16 35.78 114.85C32.9 116.32 30.23 116.82 27.79 116.36C25.34 115.89 23.43 114.05 22.05 110.81L23.6 105.15C25.19 103.53 27.59 103.09 30.82 103.84C34.21 104.62 36.3 106.19 37.1 108.53Z" />
		<path id="&lt;Path&gt;" class="shp4" d="M54.49 104.25C57.46 94.6 51.66 87.52 47.16 79.65C42.66 71.79 39.83 72.56 37.75 74.14C35.97 75.51 40.44 90.94 37.94 95.83C36.6 98.45 35.54 101.22 35.39 104.18C35.09 109.92 35.56 117.34 39.77 118.55C41.19 118.96 41.32 103.69 42.81 103.9C46.75 104.46 50.64 104.57 54.49 104.25Z" />
	</g>
</svg>