<svg version="1.2" baseProfile="tiny-ps" xmlns="http://www.w3.org/2000/svg" viewBox="0 0 1782 1010" width="1782" height="1010">
	<title>OBJECTS</title>
	<style>
		tspan { white-space:pre }
		.shp0 { fill: none;stroke: #cdd0c4;stroke-width: 2;stroke-dasharray: 8 } 
		.shp1 { fill: none;stroke: #cdd0c4;stroke-width: 2;stroke-dasharray: 8,8 } 
		.shp2 { fill: none;stroke: #f6a915;stroke-width: 2.612;stroke-dasharray: 8,8 } 
		.shp3 { fill: #cdd0c4 } 
		.shp4 { fill: #f6a915 } 
		.shp5 { fill: #4b53e4 } 
		.shp6 { fill: none;stroke: #cdd0c4;stroke-width: 1.436;stroke-dasharray: 7,7 } 
		.shp7 { fill: none;stroke: #f6a915;stroke-width: 1.767;stroke-dasharray: 7,7 } 
		.shp8 { fill: none;stroke: #cdd0c4;stroke-width: 0.971;stroke-dasharray: 8,8 } 
		.shp9 { fill: #000000 } 
		.shp10 { fill: #30b47a } 
		.shp11 { fill: none;stroke: #0c8563;stroke-width: 4;stroke-dasharray: 8,8 } 
		.shp12 { fill: none;stroke: #ffffff;stroke-width: 9.333;stroke-dasharray: 9,9 } 
		.shp13 { fill: #ff5940 } 
		.shp14 { fill: none;stroke: #d15036;stroke-width: 3.519;stroke-dasharray: 7,7 } 
		.shp15 { fill: none;stroke: #ffffff;stroke-width: 7.037;stroke-dasharray: 7,7 } 
		.shp16 { fill: #221660 } 
		.shp17 { fill: none;stroke: #f6a915;stroke-width: 1.653;stroke-dasharray: 8,8 } 
		.shp18 { fill: #ff6688 } 
		.shp19 { opacity: 0.502;fill: #ffffff } 
		.shp20 { fill: none;stroke: #ff6688;stroke-width: 2;stroke-dasharray: 8,8 } 
		.shp21 { fill: #fff9e1 } 
		.shp22 { fill: #d9c693 } 
		.shp23 { fill: none;stroke: #cdd0c4;stroke-width: 3.638;stroke-dasharray: 7,7 } 
		.shp24 { fill: none;stroke: #cdd0c4;stroke-width: 2.726;stroke-dasharray: 8,8 } 
		.shp25 { fill: none;stroke: #cdd0c4;stroke-width: 2.918;stroke-dasharray: 9,9 } 
		.shp26 { fill: none;stroke: #ffffff;stroke-width: 4.428;stroke-dasharray: 9,9 } 
		.shp27 { fill: none;stroke: #221660;stroke-width: 2;stroke-dasharray: 8,8 } 
		.shp28 { fill: none;stroke: #ffffff;stroke-width: 2;stroke-dasharray: 8,8 } 
		.shp29 { fill: none;stroke: #f6a915;stroke-width: 2;stroke-dasharray: 8,8 } 
		.shp30 { fill: none;stroke: #4b53e4;stroke-width: 2;stroke-dasharray: 8,8 } 
		.shp31 { fill: none;stroke: #f67215;stroke-width: 2.796;stroke-dasharray: 8,8 } 
		.shp32 { fill: none;stroke: #ffffff;stroke-width: 3.719;stroke-dasharray: 7,7 } 
		.shp33 { fill: none;stroke: #efddc9;stroke-width: 1.817;stroke-dasharray: 7,7 } 
		.shp34 { fill: none;stroke: #ffffff;stroke-width: 7.039;stroke-dasharray: 7,7 } 
	</style>
	<g id="OBJECTS">
		<g id="&lt;Clip Group&gt;">
			<path id="&lt;Path&gt;" class="shp0" d="M1307.72 230.1C1133.37 195.41 1028.51 265.38 993.13 440.01C960.77 599.77 1109.2 697.43 1201.6 703.75C1429.01 719.29 1539.68 610.55 1533.6 377.53" />
			<g id="&lt;Group&gt;">
				<g id="&lt;Group&gt;">
					<path id="&lt;Path&gt;" class="shp0" d="M932.26 913.84C931.1 913.36 929.96 912.87 928.82 912.37" />
					<path id="&lt;Path&gt;" class="shp1" d="M922.18 909.25C857.84 877.21 819.51 817.46 807.19 730.01L805.24 697.8" />
					<path id="&lt;Path&gt;" class="shp1" d="M805.03 694.3L804.81 690.74" />
				</g>
			</g>
			<g id="&lt;Group&gt;">
				<path id="&lt;Path&gt;" class="shp2" d="M859.27 694.92L713.56 694.92C708.7 694.92 704.75 691.19 704.75 686.58L704.75 600.85C704.75 596.25 708.7 592.51 713.56 592.51L859.27 592.51C864.13 592.51 868.08 596.25 868.08 600.85L868.08 686.58C868.08 691.19 864.13 694.92 859.27 694.92Z" />
				<path id="&lt;Path&gt;" class="shp3" d="M852.44 658.66L810.94 658.66C808.02 658.66 805.65 656.42 805.65 653.65L805.65 623.88C805.65 621.12 808.02 618.88 810.94 618.88L852.44 618.88C855.36 618.88 857.72 621.12 857.72 623.88L857.72 653.65C857.72 656.42 855.36 658.66 852.44 658.66Z" />
				<path id="&lt;Path&gt;" class="shp4" d="M867.56 600.56C867.56 595.96 863.62 592.22 858.75 592.22L713.05 592.22C708.18 592.22 704.24 595.96 704.24 600.56L704.24 601.97L867.58 602.78L867.56 600.56Z" />
				<path id="&lt;Path&gt;" class="shp5" d="M856.05 681.49L852.27 705.85L861.7 697.74L874.97 698.69L856.05 681.49Z" />
				<path id="&lt;Path&gt;" class="shp6" d="M773.34 623.42C780.31 623.42 787.28 623.42 794.25 623.42" />
				<path id="&lt;Path&gt;" class="shp6" d="M716.87 623.42C734.3 623.42 751.73 623.42 769.17 623.42" />
				<path id="&lt;Path&gt;" class="shp6" d="M752.45 631.69C766.38 631.69 780.31 631.69 794.25 631.69" />
				<path id="&lt;Path&gt;" class="shp6" d="M716.87 631.69C727.23 631.69 737.59 631.69 747.96 631.69" />
				<path id="&lt;Path&gt;" class="shp6" d="M785.08 639.95C788.14 639.95 791.19 639.95 794.25 639.95" />
				<path id="&lt;Path&gt;" class="shp6" d="M716.87 639.95C737.75 639.96 760.5 639.96 780.97 639.95" />
				<path id="&lt;Path&gt;" class="shp6" d="M753.01 647.79C766.76 647.79 780.5 647.79 794.25 647.79" />
				<path id="&lt;Path&gt;" class="shp6" d="M716.87 647.79C727.6 647.79 738.34 647.79 749.07 647.79" />
				<path id="&lt;Path&gt;" class="shp6" d="M767.01 656.48C776.09 656.48 785.17 656.48 794.25 656.48" />
				<path id="&lt;Path&gt;" class="shp6" d="M716.87 656.48C732.11 656.48 747.36 656.48 762.6 656.48" />
				<path id="&lt;Path&gt;" class="shp5" d="M763.77 677.39L722.44 677.39C719.34 677.39 716.84 675.02 716.84 672.09L716.84 672.09C716.84 669.17 719.34 666.79 722.44 666.79L763.77 666.79C766.87 666.79 769.37 669.17 769.37 672.09L769.37 672.09C769.37 675.02 766.87 677.39 763.77 677.39Z" />
			</g>
			<g id="&lt;Group&gt;">
				<path id="&lt;Path&gt;" class="shp7" d="M1694.8 205.92L1596.25 205.92C1592.96 205.92 1590.29 203.39 1590.29 200.28L1590.29 142.29C1590.29 139.18 1592.96 136.65 1596.25 136.65L1694.8 136.65C1698.09 136.65 1700.76 139.18 1700.76 142.29L1700.76 200.28C1700.76 203.39 1698.09 205.92 1694.8 205.92Z" />
				<path id="&lt;Path&gt;" class="shp3" d="M1690.18 181.39L1662.11 181.39C1660.14 181.39 1658.54 179.87 1658.54 178.01L1658.54 157.87C1658.54 156 1660.14 154.48 1662.11 154.48L1690.18 154.48C1692.16 154.48 1693.76 156 1693.76 157.87L1693.76 178.01C1693.76 179.87 1692.16 181.39 1690.18 181.39Z" />
				<path id="&lt;Path&gt;" class="shp4" d="M1700.41 142.1C1700.41 138.98 1697.75 136.45 1694.46 136.45L1595.9 136.45C1592.61 136.45 1589.95 138.98 1589.95 142.1L1589.95 143.04L1700.43 143.6L1700.41 142.1Z" />
				<path id="&lt;Path&gt;" class="shp5" d="M1692.63 196.83L1690.07 213.31L1696.45 207.82L1705.43 208.46L1692.63 196.83Z" />
				<path id="&lt;Path&gt;" class="shp8" d="M1636.69 157.56C1641.4 157.56 1646.11 157.56 1650.83 157.56" />
				<path id="&lt;Path&gt;" class="shp8" d="M1598.49 157.56C1610.28 157.56 1622.07 157.56 1633.86 157.56" />
				<path id="&lt;Path&gt;" class="shp8" d="M1622.55 163.15C1631.98 163.15 1641.4 163.15 1650.83 163.15" />
				<path id="&lt;Path&gt;" class="shp8" d="M1598.49 163.15C1605.5 163.15 1612.51 163.15 1619.52 163.15" />
				<path id="&lt;Path&gt;" class="shp8" d="M1644.63 168.74C1646.69 168.74 1648.76 168.74 1650.83 168.74" />
				<path id="&lt;Path&gt;" class="shp8" d="M1598.49 168.74C1612.61 168.74 1628 168.74 1641.84 168.74" />
				<path id="&lt;Path&gt;" class="shp8" d="M1622.93 174.04C1632.23 174.04 1641.53 174.04 1650.83 174.04" />
				<path id="&lt;Path&gt;" class="shp8" d="M1598.49 174.04C1605.75 174.04 1613.01 174.04 1620.27 174.04" />
				<path id="&lt;Path&gt;" class="shp8" d="M1632.4 179.92C1638.54 179.92 1644.69 179.92 1650.83 179.92" />
				<path id="&lt;Path&gt;" class="shp8" d="M1598.49 179.92C1608.8 179.92 1619.11 179.92 1629.42 179.92" />
				<path id="&lt;Path&gt;" class="shp5" d="M1630.21 194.06L1602.25 194.06C1600.16 194.06 1598.47 192.46 1598.47 190.48L1598.47 190.48C1598.47 188.5 1600.16 186.89 1602.25 186.89L1630.21 186.89C1632.31 186.89 1634 188.5 1634 190.48L1634 190.48C1634 192.46 1632.31 194.06 1630.21 194.06Z" />
			</g>
			<g id="&lt;Group&gt;">
				<g id="&lt;Group&gt;">
					<path id="&lt;Path&gt;" class="shp9" d="M618.55 950.92C618.98 951.2 619.11 951.57 619.09 952.04C619.04 952.9 620.45 952.89 620.5 952.04C620.55 951.08 620.09 950.3 619.26 949.76C618.51 949.28 617.81 950.43 618.55 950.92Z" />
				</g>
			</g>
			<g id="&lt;Group&gt;">
				<path id="&lt;Path&gt;" class="shp10" d="M1567.18 338.73C1567.18 368.41 1541.77 392.47 1510.42 392.47C1479.07 392.47 1453.66 368.41 1453.66 338.73C1453.66 309.05 1479.07 284.99 1510.42 284.99C1541.77 284.99 1567.18 309.05 1567.18 338.73Z" />
				<path id="&lt;Path&gt;" class="shp11" d="M1571.95 332.72C1571.95 362.4 1546.53 386.46 1515.18 386.46C1483.83 386.46 1458.42 362.4 1458.42 332.72C1458.42 303.04 1483.83 278.98 1515.18 278.98C1546.53 278.98 1571.95 303.04 1571.95 332.72Z" />
				<path id="&lt;Path&gt;" class="shp12" d="M1485.51 343.31L1499.39 356.44L1540.4 317.62" />
			</g>
			<g id="&lt;Group&gt;">
				<path id="&lt;Path&gt;" class="shp13" d="M1113.19 650.92C1113.19 677.03 1090.83 698.19 1063.26 698.19C1035.68 698.19 1013.33 677.03 1013.33 650.92C1013.33 624.82 1035.68 603.65 1063.26 603.65C1090.83 603.65 1113.19 624.82 1113.19 650.92Z" />
				<path id="&lt;Path&gt;" class="shp14" d="M1117.38 645.63C1117.38 671.74 1095.02 692.9 1067.45 692.9C1039.87 692.9 1017.52 671.74 1017.52 645.63C1017.52 619.53 1039.87 598.36 1067.45 598.36C1095.02 598.36 1117.38 619.53 1117.38 645.63Z" />
				<g id="&lt;Group&gt;">
					<path id="&lt;Path&gt;" class="shp15" d="M1080.57 638.48C1080.57 648.11 1072.32 655.92 1062.14 655.92C1051.96 655.92 1043.71 648.11 1043.71 638.48C1043.71 628.84 1051.96 621.03 1062.14 621.03C1072.32 621.03 1080.57 628.84 1080.57 638.48Z" />
					<path id="&lt;Path&gt;" class="shp15" d="M1074.99 652.99L1090.27 667.46L1074.99 652.99Z" />
				</g>
			</g>
			<g id="&lt;Group&gt;">
				<g id="&lt;Group&gt;">
					<path id="&lt;Path&gt;" class="shp16" d="M1257.14 374.61C1258.5 371.23 1259.22 367.74 1259.37 364.12C1259.44 362.4 1256.62 362.4 1256.55 364.12C1256.41 367.5 1255.69 370.74 1254.42 373.9C1253.77 375.51 1256.5 376.21 1257.14 374.61Z" />
				</g>
			</g>
			<path id="&lt;Path&gt;" class="shp17" d="M743.69 930.19L722.36 930.19C701.55 930.19 684.67 914.21 684.67 894.51L684.67 894.51C684.67 874.8 701.55 858.83 722.36 858.83L726.52 858.83C747.33 858.83 764.21 874.8 764.21 894.51L764.21 928.08C764.21 928.95 763.61 929.66 762.85 929.68C758.28 929.8 743.79 930.19 743.69 930.19Z" />
			<path id="&lt;Path&gt;" class="shp18" d="M975.02 855.5L972.96 868.76L985.32 864.86L975.02 855.5Z" />
			<path id="&lt;Path&gt;" class="shp18" d="M1359.06 334.1L1356.36 351.47L1372.56 346.36L1359.06 334.1Z" />
			<path id="&lt;Path&gt;" class="shp19" d="M594.54 220.37C594.54 222.25 592.93 223.78 590.94 223.78C588.95 223.78 587.34 222.25 587.34 220.37C587.34 218.49 588.95 216.96 590.94 216.96C592.93 216.96 594.54 218.49 594.54 220.37Z" />
			<path id="&lt;Path&gt;" class="shp4" d="M944.89 702.98C944.54 700.16 946.67 697.61 949.65 697.28C952.62 696.96 955.31 698.97 955.66 701.79C956.01 704.61 953.88 707.16 950.9 707.49C947.93 707.81 945.23 705.8 944.89 702.98Z" />
			<path id="&lt;Path&gt;" class="shp4" d="M261.39 820.29C261.39 823.13 258.96 825.43 255.96 825.43C252.97 825.43 250.54 823.13 250.54 820.29C250.54 817.46 252.97 815.16 255.96 815.16C258.96 815.16 261.39 817.46 261.39 820.29Z" />
			<path id="&lt;Path&gt;" class="shp20" d="M1620.49 4L1636.58 6.28L1632.92 17.47L1647.06 19.78L1644.98 32.05L1658.71 33.64L1655.82 44.44" />
			<g id="&lt;Group&gt;">
				<path id="&lt;Path&gt;" class="shp21" d="M1288.43 895.07L1398.03 840.95C1410.25 844.39 1419.26 850.72 1425.04 859.95C1433.72 873.79 1432.74 896.31 1439.46 901.75C1452.9 912.63 1481.79 910.44 1487.7 949.46L1384.83 1010C1379.21 1000.65 1374.22 994.94 1369.86 992.9C1359.34 987.96 1340.78 984.8 1329.32 971.55C1320.12 960.92 1322.05 935.92 1314.19 919.6C1308.84 908.5 1300.25 900.32 1288.43 895.07Z" />
				<g id="&lt;Group&gt;">
					<g id="&lt;Group&gt;">
						<path id="&lt;Path&gt;" class="shp22" d="M1326.25 905.28C1352.25 894.38 1374.31 876.13 1399.99 864.61C1402.59 863.44 1400.32 859.8 1397.74 860.96C1372.06 872.48 1350 890.73 1323.99 901.63C1321.37 902.73 1323.64 906.37 1326.25 905.28Z" />
					</g>
				</g>
				<g id="&lt;Group&gt;">
					<g id="&lt;Group&gt;">
						<path id="&lt;Path&gt;" class="shp22" d="M1333.64 921.03C1359.65 910.13 1381.7 891.88 1407.39 880.36C1409.98 879.19 1407.72 875.55 1405.13 876.71C1379.45 888.23 1357.39 906.48 1331.39 917.38C1328.76 918.48 1331.03 922.12 1333.64 921.03Z" />
					</g>
				</g>
				<g id="&lt;Group&gt;">
					<g id="&lt;Group&gt;">
						<path id="&lt;Path&gt;" class="shp22" d="M1341.03 940.28C1367.04 929.38 1389.1 911.13 1414.78 899.61C1417.38 898.44 1415.11 894.79 1412.53 895.95C1386.84 907.47 1364.79 925.73 1338.78 936.62C1336.16 937.72 1338.43 941.37 1341.03 940.28Z" />
					</g>
				</g>
				<g id="&lt;Group&gt;">
					<g id="&lt;Group&gt;">
						<path id="&lt;Path&gt;" class="shp22" d="M1349.32 960.86C1375.33 949.96 1397.38 931.71 1423.06 920.19C1425.66 919.03 1423.4 915.38 1420.81 916.54C1395.13 928.06 1373.07 946.31 1347.06 957.21C1344.44 958.31 1346.71 961.95 1349.32 960.86Z" />
					</g>
				</g>
				<g id="&lt;Group&gt;">
					<g id="&lt;Group&gt;">
						<path id="&lt;Path&gt;" class="shp22" d="M1370.02 969.68C1396.03 958.78 1418.09 940.53 1443.77 929.01C1446.37 927.85 1444.1 924.2 1441.52 925.36C1415.83 936.88 1393.78 955.13 1367.77 966.03C1365.15 967.13 1367.42 970.78 1370.02 969.68Z" />
					</g>
				</g>
				<g id="&lt;Group&gt;">
					<g id="&lt;Group&gt;">
						<path id="&lt;Path&gt;" class="shp22" d="M1390.73 981.45C1416.74 970.55 1438.8 952.3 1464.48 940.77C1467.08 939.61 1464.81 935.96 1462.22 937.12C1436.54 948.64 1414.49 966.89 1388.48 977.79C1385.85 978.89 1388.13 982.54 1390.73 981.45Z" />
					</g>
				</g>
			</g>
			<g id="&lt;Group&gt;">
				<path id="&lt;Path&gt;" class="shp1" d="M1142.61 846.21C1138.1 844.66 1135.16 841.02 1136.41 836.62L1137.78 831.81L1149.18 792.26C1149.5 791.15 1150.17 790.17 1151.09 789.44L1158.19 783.85L1160.01 782.42C1160.89 781.72 1162.23 782.06 1162.64 783.07L1163.48 785.19L1166.37 792.44C1166.79 793.5 1166.86 794.67 1166.56 795.77L1155.6 835.46L1154.14 840.88C1153.71 842.48 1152.91 844.01 1151.68 845.19C1149.82 846.97 1147.46 847.55 1143.44 846.47C1143.15 846.39 1142.88 846.3 1142.61 846.21Z" />
				<path id="&lt;Path&gt;" class="shp3" d="M1163.48 785.19L1162.64 783.07C1162.23 782.06 1160.89 781.72 1160.01 782.42L1158.19 783.85C1158.36 784.57 1158.99 785.03 1160.07 785.24C1161.16 785.44 1162.29 785.43 1163.48 785.19Z" />
				<path id="&lt;Path&gt;" class="shp1" d="M1155.6 835.46L1154.07 841.13C1153.63 842.78 1152.73 844.29 1151.41 845.44C1149.59 847.03 1147.27 847.5 1143.44 846.47C1143.15 846.39 1142.88 846.3 1142.61 846.21C1138.1 844.66 1135.16 841.02 1136.41 836.62L1137.78 831.81C1140.75 830.49 1143.37 829.99 1145.65 830.3C1150.87 831.02 1154.19 832.74 1155.6 835.46Z" />
				<path id="&lt;Path&gt;" class="shp1" d="M1138.7 839.16C1140.45 837.83 1148.17 837 1151.33 842.64" />
				<path id="&lt;Path&gt;" class="shp1" d="M1151.12 792.94L1154.05 794.49L1158.12 793.72L1161.54 795.72L1164.63 794.64" />
				<path id="&lt;Path&gt;" class="shp1" d="M1141.42 824.6C1147.5 822.03 1152.65 823.47 1156.88 828.92" />
				<path id="&lt;Path&gt;" class="shp1" d="M1154.44 822.13L1161.54 795.72" />
				<path id="&lt;Path&gt;" class="shp1" d="M1146.14 823.98L1153.23 797.57" />
			</g>
			<g id="&lt;Group&gt;">
				<path id="&lt;Path&gt;" class="shp20" d="M1718.69 820.41C1722.6 825.21 1723.17 831.28 1718.45 835.38L1713.3 839.87L1657.53 889.35C1656.35 890.38 1654.85 891.04 1653.26 891.24L1641.07 892.74L1637.95 893.12C1636.44 893.31 1635.18 892.03 1635.49 890.61L1636.13 887.67L1638.34 877.56C1638.66 876.08 1639.46 874.73 1640.62 873.69L1695.99 823.75L1701.71 818.64C1703.41 817.13 1705.45 815.95 1707.73 815.45C1711.16 814.7 1714.25 815.64 1717.96 819.58C1718.22 819.85 1718.46 820.13 1718.69 820.41Z" />
				<path id="&lt;Path&gt;" class="shp18" d="M1636.13 887.67L1635.49 890.61C1635.18 892.03 1636.44 893.31 1637.95 893.12L1641.07 892.74C1641.42 891.81 1641.07 890.87 1640 889.9C1638.94 888.94 1637.65 888.2 1636.13 887.67Z" />
				<path id="&lt;Path&gt;" class="shp20" d="M1695.99 823.75L1701.98 818.4C1703.72 816.85 1705.87 815.76 1708.22 815.35C1711.45 814.79 1714.43 815.83 1717.96 819.58C1718.22 819.85 1718.46 820.13 1718.69 820.41C1722.6 825.21 1723.17 831.28 1718.45 835.38L1713.3 839.87C1708.96 839.35 1705.63 838.15 1703.31 836.26C1697.98 831.93 1695.54 827.76 1695.99 823.75Z" />
				<path id="&lt;Path&gt;" class="shp20" d="M1717.79 830.99C1714.81 831.3 1705.5 827.03 1706.2 818.55" />
				<path id="&lt;Path&gt;" class="shp20" d="M1655.87 887.27L1653.73 883.56L1648.58 881.69L1646.24 877.13L1641.95 876.26" />
				<path id="&lt;Path&gt;" class="shp20" d="M1703.78 845.53C1695.01 844.32 1690.29 839.23 1689.63 830.25" />
				<path id="&lt;Path&gt;" class="shp20" d="M1687.27 839.52L1646.24 877.13" />
				<path id="&lt;Path&gt;" class="shp20" d="M1698 843.04L1656.97 880.65" />
			</g>
			<g id="&lt;Group&gt;">
				<path id="&lt;Path&gt;" class="shp23" d="M1770.47 414.39L1663.37 414.39L1647.09 424.27L1646.01 414.39C1641.86 414.39 1638.49 411.2 1638.49 407.27L1638.49 380.86C1638.49 376.92 1641.86 373.73 1646.01 373.73L1770.47 373.73C1774.63 373.73 1778 376.92 1778 380.86L1778 407.27C1778 411.2 1774.63 414.39 1770.47 414.39Z" />
				<path id="&lt;Path&gt;" class="shp23" d="M1657.02 389.09L1761.42 389.09" />
				<path id="&lt;Path&gt;" class="shp23" d="M1657.02 399.97L1761.42 399.97" />
			</g>
			<g id="&lt;Group&gt;">
				<path id="&lt;Path&gt;" class="shp24" d="M975.64 208.9L1002.39 208.9L1011.4 214.36L1012 208.9C1014.29 208.9 1016.16 207.13 1016.16 204.96L1016.16 190.35C1016.16 188.17 1014.29 186.41 1012 186.41L975.64 186.41C973.35 186.41 971.48 188.17 971.48 190.35L971.48 204.96C971.48 207.13 973.35 208.9 975.64 208.9Z" />
				<path id="&lt;Path&gt;" class="shp24" d="M1005.91 194.91L980.65 194.91" />
				<path id="&lt;Path&gt;" class="shp24" d="M1005.91 200.92L980.65 200.92" />
			</g>
			<g id="&lt;Group&gt;">
				<path id="&lt;Path&gt;" class="shp25" d="M548.39 925.18L479.61 925.18C474.61 925.18 470.56 921.35 470.56 916.62L470.56 879.87C470.56 875.14 474.61 871.3 479.61 871.3L548.39 871.3C553.39 871.3 557.44 875.14 557.44 879.87L557.44 916.62C557.44 921.35 553.39 925.18 548.39 925.18Z" />
				<path id="&lt;Path&gt;" class="shp10" d="M481.88 915.34C493.58 898.34 500.25 889.84 501.88 889.84C503.52 889.84 511.41 898.47 525.56 915.73L481.88 915.34Z" />
				<path id="&lt;Path&gt;" class="shp10" d="M515.17 898.32L528.83 914.57L545.26 914.57L545.26 905.3C534.99 896.14 528.48 890.73 525.72 889.05C524.44 890.34 515.17 899.05 515.17 898.32Z" />
				<path id="&lt;Path&gt;" class="shp4" d="M495.5 884.6C495.5 887 493.45 888.94 490.91 888.94C488.38 888.94 486.32 887 486.32 884.6C486.32 882.2 488.38 880.25 490.91 880.25C493.45 880.25 495.5 882.2 495.5 884.6Z" />
			</g>
			<g id="&lt;Group&gt;" style="opacity: 0.149">
				<path id="&lt;Path&gt;" class="shp26" d="M89.3 871.76L13.16 871.76C7.63 871.76 3.15 867.51 3.15 862.28L3.15 821.6C3.15 816.36 7.63 812.12 13.16 812.12L89.3 812.12C94.84 812.12 99.32 816.36 99.32 821.6L99.32 862.28C99.32 867.51 94.84 871.76 89.3 871.76Z" />
				<path id="&lt;Path&gt;" class="shp26" d="M17.7 860.88C16.82 860.88 16.3 859.97 16.78 859.28C20.93 853.32 35.5 832.63 37.82 832.63C39.63 832.63 48.36 842.19 64.03 861.29L17.7 860.88Z" />
				<path id="&lt;Path&gt;" class="shp26" d="M49.28 843.28L64.39 861.27L84.63 860.89C85.22 860.88 85.7 860.42 85.71 859.86L85.82 850.25C85.83 849.93 85.69 849.64 85.42 849.44C82.84 847.46 68.58 836.61 62.81 832.71C61.97 832.14 60.83 832.23 60.11 832.93C57.98 834.99 54.37 838.44 49.28 843.28Z" />
				<path id="&lt;Path&gt;" class="shp26" d="M30.76 826.83C30.76 829.49 28.48 831.64 25.68 831.64C22.87 831.64 20.6 829.49 20.6 826.83C20.6 824.18 22.87 822.02 25.68 822.02C28.48 822.02 30.76 824.18 30.76 826.83Z" />
			</g>
			<path id="&lt;Path&gt;" class="shp27" d="M1550.83 601.73C1550.47 603.75 1548.45 605.1 1546.32 604.75C1544.19 604.4 1542.77 602.49 1543.13 600.48C1543.5 598.47 1545.52 597.12 1547.65 597.46C1549.77 597.81 1551.2 599.72 1550.83 601.73Z" />
			<path id="&lt;Path&gt;" class="shp27" d="M1222.32 609.62C1221.96 611.64 1219.94 612.99 1217.81 612.64C1215.69 612.29 1214.26 610.38 1214.63 608.37C1214.99 606.35 1217.01 605 1219.14 605.35C1221.27 605.7 1222.69 607.61 1222.32 609.62Z" />
			<path id="&lt;Path&gt;" class="shp27" d="M1202.9 903.97C1202.53 905.98 1200.51 907.33 1198.38 906.98C1196.26 906.64 1194.83 904.72 1195.2 902.71C1195.57 900.7 1197.59 899.35 1199.71 899.7C1201.84 900.04 1203.26 901.96 1202.9 903.97Z" />
			<path id="&lt;Path&gt;" class="shp27" d="M988.75 240.19C988.38 242.2 986.36 243.55 984.24 243.21C982.11 242.86 980.69 240.95 981.05 238.94C981.42 236.92 983.44 235.57 985.56 235.92C987.69 236.27 989.12 238.18 988.75 240.19Z" />
			<g id="&lt;Group&gt;">
				<path id="&lt;Path&gt;" class="shp28" d="M9.67 751.08L16.12 768.52" />
				<path id="&lt;Path&gt;" class="shp28" d="M4.63 763.55L21.41 756.91" />
			</g>
			<g id="&lt;Group&gt;">
				<path id="&lt;Path&gt;" class="shp28" d="M582.8 103.61L589.25 121.05" />
				<path id="&lt;Path&gt;" class="shp28" d="M577.77 116.07L594.54 109.43" />
			</g>
			<g id="&lt;Group&gt;">
				<path id="&lt;Path&gt;" class="shp28" d="M716.62 660.04L723.07 677.48" />
				<path id="&lt;Path&gt;" class="shp28" d="M711.58 672.51L728.36 665.87" />
			</g>
			<g id="&lt;Group&gt;">
				<path id="&lt;Path&gt;" class="shp29" d="M1422.27 222.62L1428.71 240.06" />
				<path id="&lt;Path&gt;" class="shp29" d="M1417.23 235.08L1434 228.44" />
			</g>
			<g id="&lt;Group&gt;">
				<path id="&lt;Path&gt;" class="shp29" d="M1307.16 798.57L1313.61 816.01" />
				<path id="&lt;Path&gt;" class="shp29" d="M1302.13 811.03L1318.9 804.39" />
			</g>
			<g id="&lt;Group&gt;">
				<path id="&lt;Path&gt;" class="shp29" d="M1638.52 504.48L1644.97 521.92" />
				<path id="&lt;Path&gt;" class="shp29" d="M1633.48 516.94L1650.25 510.3" />
			</g>
			<g id="&lt;Group&gt;">
				<path id="&lt;Path&gt;" class="shp30" d="M602.61 801.34L609.06 818.78" />
				<path id="&lt;Path&gt;" class="shp30" d="M597.58 813.8L614.35 807.16" />
			</g>
			<g id="&lt;Group&gt;">
				<g id="&lt;Group&gt;">
					<path id="&lt;Path&gt;" class="shp4" d="M1216.21 240.47C1216.21 263.28 1196.68 281.77 1172.59 281.77C1148.5 281.77 1128.97 263.28 1128.97 240.47C1128.97 217.67 1148.5 199.18 1172.59 199.18C1196.68 199.18 1216.21 217.67 1216.21 240.47Z" />
					<path id="&lt;Path&gt;" class="shp31" d="M1219.38 235.13C1219.38 257.94 1199.85 276.43 1175.76 276.43C1151.67 276.43 1132.14 257.94 1132.14 235.13C1132.14 212.33 1151.67 193.84 1175.76 193.84C1199.85 193.84 1219.38 212.33 1219.38 235.13Z" />
				</g>
				<g id="&lt;Group&gt;">
					<path id="&lt;Path&gt;" class="shp32" d="M1194.76 233.72C1194.76 241.25 1191.24 247.55 1184.7 250.89C1182.73 251.89 1180.86 256.21 1179.06 263.87L1166.3 263.62C1164.9 255.49 1163.45 250.93 1161.96 249.95C1156.54 246.38 1153 240.44 1153 233.72C1153 222.8 1162.35 213.95 1173.88 213.95C1185.41 213.95 1194.76 222.8 1194.76 233.72Z" />
					<path id="&lt;Path&gt;" class="shp32" d="M1168.08 249.85L1164.76 231.96L1172.93 236.31L1180.85 231.96L1177.78 249.85" />
					<path id="&lt;Path&gt;" class="shp32" d="M1161.96 249.95L1184.7 249.95" />
					<path id="&lt;Path&gt;" class="shp32" d="M1165.79 256.61L1180.85 256.61" />
				</g>
			</g>
			<g id="&lt;Group&gt;">
				<g id="&lt;Group&gt;">
					<path id="&lt;Path&gt;" class="shp16" d="M1174.58 299.75C1175.48 299.75 1175.48 298.41 1174.58 298.41C1173.67 298.41 1173.67 299.75 1174.58 299.75Z" />
				</g>
			</g>
			<g id="&lt;Group&gt;">
				<path id="&lt;Path&gt;" class="shp33" d="M738.5 893.55C738.77 899.17 736.37 903.98 731.61 906.68C730.18 907.49 728.94 910.78 727.88 916.54L718.34 916.78C717.01 910.75 715.77 907.4 714.62 906.72C710.45 904.23 707.59 899.91 707.35 894.9C706.96 886.75 713.61 879.85 722.21 879.48C730.82 879.1 738.11 885.4 738.5 893.55Z" />
				<path id="&lt;Path&gt;" class="shp33" d="M717.81 906.4L716.4 892.89L722.65 895.87L728.4 892.37L728.45 906.54" />
				<path id="&lt;Path&gt;" class="shp33" d="M715.53 907.28L730.97 907" />
				<path id="&lt;Path&gt;" class="shp33" d="M717.71 911.56L728.95 911.08" />
			</g>
			<g id="&lt;Group&gt;" style="opacity: 0.141">
				<path id="&lt;Path&gt;" class="shp34" d="M524.23 712.53C524.23 722.17 515.98 729.98 505.8 729.98C495.62 729.98 487.36 722.17 487.36 712.53C487.36 702.89 495.62 695.08 505.8 695.08C515.98 695.08 524.23 702.89 524.23 712.53Z" />
				<path id="&lt;Path&gt;" class="shp34" d="M518.64 727.05L533.93 741.52L518.64 727.05Z" />
			</g>
			<path id="&lt;Path&gt;" class="shp3" d="M1320.88 232.01C1320.88 235.24 1318.12 237.86 1314.71 237.86C1311.3 237.86 1308.54 235.24 1308.54 232.01C1308.54 228.79 1311.3 226.17 1314.71 226.17C1318.12 226.17 1320.88 228.79 1320.88 232.01Z" />
		</g>
	</g>
</svg>