<svg version="1.2" baseProfile="tiny-ps" xmlns="http://www.w3.org/2000/svg" viewBox="0 0 1101 886" width="1101" height="886">
	<title>&lt;Path&gt; copy</title>
	<style>
		tspan { white-space:pre }
		.shp0 { fill: #4b52e4 } 
	</style>
	<path id="&lt;Path&gt; copy" class="shp0" d="M1088.62 400.24C1095.33 393.89 1108.78 370.98 1094.02 368.44C1079.27 365.9 1039.02 431.94 1024.94 422.41C1010.85 412.89 1084.63 303.67 1053.11 289.07C1033.92 280.18 1013.79 293.92 994.71 306.27C973.29 320.13 954 332.51 954.46 314.55C954.69 305.71 1014.85 248.61 963.21 214.32C934.57 195.31 882.14 223.92 831.96 251.6C791.64 273.85 749.1 302.2 707.7 277.96C646.39 242.05 661.75 7.38 483.48 0.59L0.57 0.59L0.57 763.51C24.94 856.77 105.68 896.67 242.79 883.21C448.44 863.02 613.14 646.22 639.47 628.49C678.85 601.98 713.75 613.36 695.47 650.85C677.19 688.35 705.6 720.36 761.09 685.64C861.71 622.69 939.71 356.1 1016.66 338.06C1034.41 333.9 966.23 453.76 1012.25 451.69C1032.84 450.76 1079.96 386.32 1084.79 383.01C1096.63 374.9 1097.09 380.33 1086.17 399.31L1088.62 400.24Z" />
</svg>